<?xml version="1.0" encoding="UTF-8"?>
<svg version="1.1" xmlns="http://www.w3.org/2000/svg" width="3333" height="3333">
<path d="M0 0 C1099.89 0 2199.78 0 3333 0 C3333 1099.89 3333 2199.78 3333 3333 C2233.11 3333 1133.22 3333 0 3333 C0 2233.11 0 1133.22 0 0 Z M1666 728 C1655.35273775 751.44256048 1644.78484631 774.91827935 1634.34472656 798.45385742 C1633.50847783 800.33903628 1632.6722149 802.22420885 1631.8359375 804.109375 C1631.42694214 805.03140213 1631.01794678 805.95342926 1630.59655762 806.90339661 C1626.58426751 815.94452047 1622.54440908 824.97320942 1618.5 834 C1612.30798143 847.82211726 1606.14668142 861.65766407 1600 875.5 C1593.85331775 889.3423378 1587.69154719 903.17767054 1581.5 917 C1575.37380627 930.67774336 1569.27237193 944.36632324 1563.1875 958.0625 C1562.77034729 959.00137054 1562.35319458 959.94024109 1561.92340088 960.90756226 C1557.67497817 970.46983994 1553.42878353 980.03310464 1549.18510437 989.5974884 C1547.08242054 994.33612948 1544.97890869 999.07440263 1542.875 1003.8125 C1542.46021393 1004.74671783 1542.04542786 1005.68093567 1541.61807251 1006.64346313 C1535.37924113 1020.69112371 1529.08361528 1034.71235374 1522.75918579 1048.72164917 C1516.72801548 1062.08775408 1510.81439651 1075.5026525 1504.9418335 1088.93908691 C1498.84132702 1102.88964403 1492.60257461 1116.77326954 1486.30252075 1130.63470459 C1480.43609413 1143.54751482 1474.67694299 1156.50282938 1469 1169.5 C1462.02794228 1185.46108011 1454.90555887 1201.34928728 1447.70336914 1217.20776367 C1443.23191879 1227.05488677 1438.80482307 1236.91875049 1434.4375 1246.8125 C1422.51708103 1273.67704407 1410.18610462 1298.93374973 1390.0859375 1320.7265625 C1388.1477745 1322.8389424 1386.28976729 1324.99998072 1384.4375 1327.1875 C1380.9224469 1331.1967329 1377.10865718 1334.60986792 1373 1338 C1372.50032715 1338.42265137 1372.0006543 1338.84530273 1371.48583984 1339.28076172 C1356.68864983 1351.77336439 1340.57169861 1361.88352652 1323 1370 C1321.87722656 1370.53109375 1320.75445313 1371.0621875 1319.59765625 1371.609375 C1293.73963822 1383.316389 1265.36171495 1387.21737016 1237.38012695 1390.13110352 C1234.68276355 1390.42067881 1231.9855081 1390.71114829 1229.28834248 1391.00254917 C1222.41432065 1391.74285087 1215.53893158 1392.46970575 1208.66306883 1393.19268538 C1202.44247403 1393.84709771 1196.22247739 1394.50700096 1190.00274277 1395.16953659 C1162.92569187 1398.05345215 1135.84595782 1400.91150874 1108.76523898 1403.76075628 C1096.47735492 1405.05368549 1084.18971353 1406.3489145 1071.90208427 1407.64426262 C1049.90662143 1409.96295969 1027.91100949 1412.280239 1005.9152832 1414.59643555 C1004.60959105 1414.73392806 1003.3038989 1414.87142058 1001.95864031 1415.01307953 C999.31697499 1415.29125274 996.67530965 1415.56942589 994.03364431 1415.84759897 C992.7245766 1415.98544685 991.41550889 1416.12329474 990.06677246 1416.26531982 C988.75701731 1416.40323986 987.44726216 1416.5411599 986.09781746 1416.68325933 C971.5714467 1418.21294098 957.0451159 1419.74300192 942.51879883 1421.27319336 C941.21810726 1421.41020686 939.91741568 1421.54722036 938.57730921 1421.68838578 C916.65490409 1423.99770115 894.73258566 1426.30783871 872.81031209 1428.61840254 C860.59446874 1429.90588371 848.37857639 1431.19289649 836.1625576 1432.47871208 C781.43294908 1438.23941773 726.70819149 1444.038962 672 1450 C672.95887083 1451.12964539 673.91929191 1452.25797502 674.88037109 1453.38574219 C675.68237442 1454.32845978 675.68237442 1454.32845978 676.50057983 1455.29022217 C678.09761787 1457.11131294 679.76258248 1458.70223749 681.625 1460.25 C685.15796384 1463.25504971 688.59207471 1466.35467261 692 1469.5 C695.27818066 1472.51965706 698.56582128 1475.52203151 701.9375 1478.4375 C706.12032011 1482.06144644 710.16271807 1485.83255746 714.22021484 1489.59521484 C717.73212744 1492.84615512 721.29001418 1496.02984313 724.91015625 1499.16015625 C727.64370559 1501.56670156 730.32114006 1504.03303196 733 1506.5 C736.30026876 1509.53890177 739.60949347 1512.561561 743 1515.5 C746.9308925 1518.9067735 750.75196573 1522.43002785 754.578125 1525.953125 C757.35494057 1528.50555143 760.14980717 1531.02983288 763 1533.5 C766.93167214 1536.90744919 770.75361244 1540.43129673 774.58032227 1543.95532227 C777.33473428 1546.48740116 780.10742499 1548.99035268 782.9375 1551.4375 C787.12032011 1555.06144644 791.16271807 1558.83255746 795.22021484 1562.59521484 C798.73212744 1565.84615512 802.29001418 1569.02984313 805.91015625 1572.16015625 C808.64370559 1574.56670156 811.32114006 1577.03303196 814 1579.5 C817.30026876 1582.53890177 820.60949347 1585.561561 824 1588.5 C827.9308925 1591.9067735 831.75196573 1595.43002785 835.578125 1598.953125 C838.35494057 1601.50555143 841.14980717 1604.02983288 844 1606.5 C847.93167214 1609.90744919 851.75361244 1613.43129673 855.58032227 1616.95532227 C858.33473428 1619.48740116 861.10742499 1621.99035268 863.9375 1624.4375 C868.12032011 1628.06144644 872.16271807 1631.83255746 876.22021484 1635.59521484 C879.73212744 1638.84615512 883.29001418 1642.02984313 886.91015625 1645.16015625 C889.64370559 1647.56670156 892.32114006 1650.03303196 895 1652.5 C898.30026876 1655.53890177 901.60949347 1658.561561 905 1661.5 C908.9308925 1664.9067735 912.75196573 1668.43002785 916.578125 1671.953125 C919.35494057 1674.50555143 922.14980717 1677.02983288 925 1679.5 C928.93167214 1682.90744919 932.75361244 1686.43129673 936.58032227 1689.95532227 C939.33473428 1692.48740116 942.10742499 1694.99035268 944.9375 1697.4375 C949.12032011 1701.06144644 953.16271807 1704.83255746 957.22021484 1708.59521484 C960.73212744 1711.84615512 964.29001418 1715.02984313 967.91015625 1718.16015625 C970.64370559 1720.56670156 973.32114006 1723.03303196 976 1725.5 C979.30026876 1728.53890177 982.60949347 1731.561561 986 1734.5 C989.9308925 1737.9067735 993.75196573 1741.43002785 997.578125 1744.953125 C1000.35494057 1747.50555143 1003.14980717 1750.02983288 1006 1752.5 C1009.93167214 1755.90744919 1013.75361244 1759.43129673 1017.58032227 1762.95532227 C1020.33473428 1765.48740116 1023.10742499 1767.99035268 1025.9375 1770.4375 C1030.12032011 1774.06144644 1034.16271807 1777.83255746 1038.22021484 1781.59521484 C1041.73212744 1784.84615512 1045.29001418 1788.02984313 1048.91015625 1791.16015625 C1051.64370559 1793.56670156 1054.32114006 1796.03303196 1057 1798.5 C1060.30026876 1801.53890177 1063.60949347 1804.561561 1067 1807.5 C1070.9308925 1810.9067735 1074.75196573 1814.43002785 1078.578125 1817.953125 C1081.35494057 1820.50555143 1084.14980717 1823.02983288 1087 1825.5 C1090.87929505 1828.86420193 1094.6592191 1832.33361086 1098.43530273 1835.8125 C1101.61637536 1838.74102716 1104.8278623 1841.63048039 1108.0625 1844.5 C1117.17823295 1852.71000308 1125.42644077 1861.35131198 1133 1871 C1133.79019531 1871.96164062 1134.58039063 1872.92328125 1135.39453125 1873.9140625 C1142.69064174 1882.99111335 1148.49511801 1892.75100387 1154 1903 C1154.36867188 1903.68513672 1154.73734375 1904.37027344 1155.1171875 1905.07617188 C1169.72783784 1932.78697299 1177.12107908 1964.5278215 1177.29516602 1995.74267578 C1177.30646089 1997.13210414 1177.32653407 1998.52149753 1177.35668945 1999.91064453 C1177.89523791 2024.93660011 1172.10226368 2049.65109254 1166.92823792 2073.99769974 C1166.24739288 2077.20923123 1165.57358555 2080.42222566 1164.89962196 2083.63520718 C1162.5133142 2095.01059263 1160.10312833 2106.38087683 1157.6896286 2117.7505188 C1156.97937545 2121.09718143 1156.26966868 2124.44395951 1155.56011963 2127.79077148 C1149.30535747 2157.29301365 1143.03207736 2186.79129242 1136.75026131 2216.28778315 C1130.12832001 2247.3816342 1123.52792157 2278.48003562 1116.93352509 2309.57973862 C1116.06123294 2313.69352224 1115.18886085 2317.80728891 1114.31646729 2321.92105103 C1114.17223249 2322.60118962 1114.02799769 2323.28132821 1113.87939215 2323.98207706 C1113.58779776 2325.35708759 1113.29620309 2326.73209806 1113.00460815 2328.10710847 C1112.27440746 2331.55036238 1111.54421467 2334.99361796 1110.81402588 2338.43687439 C1110.66925702 2339.11954205 1110.52448815 2339.80220971 1110.37533236 2340.50556427 C1109.49749412 2344.6450967 1108.61969164 2348.7846367 1107.74191523 2352.92418224 C1103.27430481 2373.99316604 1098.80462516 2395.06171027 1094.3339951 2416.13005352 C1090.93506987 2432.14787411 1087.53648057 2448.16576564 1084.13989258 2464.18408203 C1083.99745994 2464.85578965 1083.85502731 2465.52749727 1083.70827854 2466.21955967 C1082.42659305 2472.26397665 1081.14494625 2478.30840183 1079.86341667 2484.35285187 C1076.65198461 2499.49980006 1073.43868099 2514.64634744 1070.22099566 2529.79196858 C1067.96780253 2540.39775883 1065.71658665 2551.00396694 1063.46737099 2561.61060143 C1062.24588088 2567.37033632 1061.0233426 2573.12984396 1059.79815674 2578.88879395 C1058.67727564 2584.15750282 1057.55914469 2589.42678729 1056.44324875 2594.69655418 C1056.03738111 2596.61074374 1055.63046427 2598.52471118 1055.22243118 2600.43844032 C1054.67056222 2603.02746991 1054.12239543 2605.61725567 1053.57519531 2608.20727539 C1053.33249625 2609.33925669 1053.33249625 2609.33925669 1053.08489418 2610.49410629 C1052.47600862 2613.39206044 1052 2616.02904471 1052 2619 C1058.18166287 2617.37160894 1063.31090634 2614.05752905 1068.75 2610.8125 C1070.91367549 2609.53580222 1073.07775166 2608.25978329 1075.2421875 2606.984375 C1076.35819336 2606.32501953 1077.47419922 2605.66566406 1078.62402344 2604.98632812 C1084.0212633 2601.81074644 1089.44764 2598.6862344 1094.875 2595.5625 C1097.05991376 2594.30341652 1099.24480949 2593.04430177 1101.4296875 2591.78515625 C1102.51475586 2591.16012207 1103.59982422 2590.53508789 1104.71777344 2589.89111328 C1110.14659942 2586.76319852 1115.57319281 2583.63141552 1121 2580.5 C1123.16665583 2579.24998121 1125.3333225 2577.99998122 1127.5 2576.75 C1128.5725 2576.13125 1129.645 2575.5125 1130.75 2574.875 C1238 2513 1345.25 2451.125 1504.5 2359.25 C1505.57282227 2358.6310083 1506.64564453 2358.0120166 1507.75097656 2357.37426758 C1509.9141929 2356.12637069 1512.07760391 2354.87881119 1514.24121094 2353.6315918 C1519.71232642 2350.47717494 1525.17976437 2347.3166724 1530.640625 2344.14453125 C1565.6929371 2323.80107208 1598.54442645 2306.38397216 1639 2300 C1639.70608398 2299.8865625 1640.41216797 2299.773125 1641.13964844 2299.65625 C1649.2720819 2298.55354716 1657.55782383 2298.75691872 1665.75 2298.75 C1666.98804382 2298.74848938 1666.98804382 2298.74848938 1668.25109863 2298.74694824 C1681.05933106 2298.75751455 1693.42731223 2299.37450224 1706 2302 C1706.72944824 2302.14453613 1707.45889648 2302.28907227 1708.21044922 2302.43798828 C1742.67187462 2309.37019303 1772.7491612 2326.69181442 1802.734375 2344.33203125 C1809.45593481 2348.28068091 1816.22576299 2352.14284042 1823 2356 C1832.67526829 2361.51182806 1842.31283237 2367.08425211 1851.921875 2372.7109375 C1859.5857377 2377.19166146 1867.28678835 2381.60506752 1875 2386 C1884.67481219 2391.51263835 1894.31282137 2397.08424567 1903.921875 2402.7109375 C1911.5857377 2407.19166146 1919.28678835 2411.60506752 1927 2416 C1935.69401686 2420.95378823 1944.36497229 2425.94378369 1953 2431 C1961.5951729 2436.0318979 1970.22312222 2441.00389124 1978.875 2445.9375 C1991.20025196 2452.96603507 2003.49722067 2460.04240434 2015.78222656 2467.14111328 C2021.18670645 2470.26324605 2026.59347412 2473.38141204 2032 2476.5 C2034.1666775 2477.74998122 2036.33334417 2478.99998121 2038.5 2480.25 C2039.5725 2480.86875 2040.645 2481.4875 2041.75 2482.125 C2233.5 2592.75 2233.5 2592.75 2236.75585938 2594.62866211 C2238.90266914 2595.86701979 2241.04979984 2597.1048213 2243.19726562 2598.34204102 C2248.30118224 2601.28347196 2253.40148134 2604.23073772 2258.49072266 2607.19747925 C2260.90938314 2608.60697037 2263.32985862 2610.01332765 2265.75048828 2611.41943359 C2267.46956052 2612.41978682 2269.1859782 2613.42469734 2270.90234375 2614.4296875 C2272.45115234 2615.32880859 2272.45115234 2615.32880859 2274.03125 2616.24609375 C2275.40120117 2617.04551392 2275.40120117 2617.04551392 2276.79882812 2617.86108398 C2278.88299111 2619.15318117 2278.88299111 2619.15318117 2281 2619 C2279.36394174 2606.38921023 2276.54679633 2594.01344659 2273.8828125 2581.58984375 C2273.35754809 2579.12678584 2272.83262966 2576.66365412 2272.30802917 2574.20045471 C2271.17891705 2568.90207051 2270.04765141 2563.60415356 2268.91445923 2558.30664062 C2267.09160764 2549.7846961 2265.2742678 2541.26158069 2263.45776367 2532.73828125 C2262.83173328 2529.80111215 2262.20567366 2526.86394929 2261.5796051 2523.92678833 C2261.42339343 2523.19391008 2261.26718176 2522.46103182 2261.1062364 2521.70594513 C2259.98499193 2516.44584265 2258.86305292 2511.18588858 2257.74082947 2505.92599487 C2253.51776968 2486.13143561 2249.30541718 2466.33463214 2245.10546875 2446.53515625 C2244.96586227 2445.87702147 2244.8262558 2445.21888669 2244.68241882 2444.54080844 C2242.98587552 2436.54263671 2241.2899783 2428.54432806 2239.59432483 2420.54596764 C2238.15533481 2413.75839443 2236.71579823 2406.97093717 2235.27625132 2400.18348205 C2229.05099928 2370.83117481 2222.8292576 2341.47812361 2216.60873818 2312.12481308 C2216.10496999 2309.74764649 2215.60119473 2307.3704814 2215.09741783 2304.99331665 C2211.72526659 2289.08114752 2208.3533914 2273.16892004 2204.98278332 2257.25642395 C2203.31422496 2249.37924409 2201.64545686 2241.50210868 2199.9765625 2233.625 C2199.72955074 2232.45909773 2199.72955074 2232.45909773 2199.47754884 2231.26964188 C2194.80989162 2209.23866883 2190.13356511 2187.20955416 2185.44852376 2165.18227148 C2184.30122282 2159.78798487 2183.1543886 2154.39359921 2182.00787354 2148.99914551 C2181.8485087 2148.24933426 2181.68914386 2147.49952302 2181.52494979 2146.72699022 C2180.8886649 2143.73323797 2180.25239042 2140.7394835 2179.61617231 2137.74571705 C2177.94166746 2129.86631843 2176.26621632 2121.98712432 2174.58740234 2114.10864258 C2155.55312645 2024.77571405 2155.55312645 2024.77571405 2155.6875 1998.75 C2155.68965515 1997.98964447 2155.6918103 1997.22928894 2155.69403076 1996.44589233 C2155.74994852 1984.08661304 2156.40835051 1972.11997808 2159 1960 C2159.19867676 1959.05688965 2159.39735352 1958.1137793 2159.60205078 1957.14208984 C2169.92811247 1909.53391779 2195.80277234 1868.51100716 2232.7734375 1836.94140625 C2235.73952616 1834.35518509 2238.61640644 1831.67750553 2241.5 1829 C2245.55990019 1825.23420372 2249.65412448 1821.5277907 2253.84375 1817.90625 C2256.77240413 1815.31714998 2259.63396673 1812.65803766 2262.5 1810 C2266.58298873 1806.21366094 2270.69769814 1802.48232867 2274.91015625 1798.83984375 C2277.64370559 1796.43329844 2280.32114006 1793.96696804 2283 1791.5 C2286.90979181 1787.89984677 2290.85866536 1784.35582336 2294.875 1780.875 C2297.61823418 1778.45449925 2300.30884568 1775.97799358 2303 1773.5 C2306.90981595 1769.89987244 2310.85866468 1766.35582395 2314.875 1762.875 C2317.61823418 1760.45449925 2320.30884568 1757.97799358 2323 1755.5 C2326.30028923 1752.46111982 2329.60949283 1749.43843955 2333 1746.5 C2336.87817013 1743.13677362 2340.65527811 1739.66664329 2344.43310547 1736.19189453 C2349.25584891 1731.75776372 2354.1234112 1727.3748176 2359 1723 C2360.66692647 1721.50028872 2362.33359149 1720.00028679 2364 1718.5 C2389 1696 2389 1696 2414 1673.5 C2415.24136719 1672.38238281 2415.24136719 1672.38238281 2416.5078125 1671.2421875 C2418.14739879 1669.76707382 2419.78799655 1668.29308348 2421.4296875 1666.8203125 C2426.0203061 1662.69902232 2430.58447107 1658.55126212 2435.125 1654.375 C2438.99367822 1650.81746901 2442.90334125 1647.31710425 2446.875 1643.875 C2449.61823418 1641.45449925 2452.30884568 1638.97799358 2455 1636.5 C2458.90981595 1632.89987244 2462.85866468 1629.35582395 2466.875 1625.875 C2469.61823418 1623.45449925 2472.30884568 1620.97799358 2475 1618.5 C2478.90981595 1614.89987244 2482.85866468 1611.35582395 2486.875 1607.875 C2490.15508581 1604.98080664 2493.36268057 1602.00781108 2496.58032227 1599.04467773 C2499.33473428 1596.51259884 2502.10742499 1594.00964732 2504.9375 1591.5625 C2508.52958591 1588.45035876 2512.01551992 1585.23127914 2515.5 1582 C2519.58301022 1578.21368312 2523.69769717 1574.48232951 2527.91015625 1570.83984375 C2530.64370559 1568.43329844 2533.32114006 1565.96696804 2536 1563.5 C2539.90979181 1559.89984677 2543.85866536 1556.35582336 2547.875 1552.875 C2550.61823418 1550.45449925 2553.30884568 1547.97799358 2556 1545.5 C2559.90981595 1541.89987244 2563.85866468 1538.35582395 2567.875 1534.875 C2570.61823418 1532.45449925 2573.30884568 1529.97799358 2576 1527.5 C2579.30028923 1524.46111982 2582.60949283 1521.43843955 2586 1518.5 C2589.87817013 1515.13677362 2593.65527811 1511.66664329 2597.43310547 1508.19189453 C2602.25584891 1503.75776372 2607.1234112 1499.3748176 2612 1495 C2613.66692647 1493.50028872 2615.33359149 1492.00028679 2617 1490.5 C2637 1472.5 2637 1472.5 2639.49609375 1470.25390625 C2641.17629851 1468.74145985 2642.85597951 1467.22843141 2644.53515625 1465.71484375 C2645.36917969 1464.96332031 2646.20320313 1464.21179687 2647.0625 1463.4375 C2647.87589844 1462.70402344 2648.68929687 1461.97054687 2649.52734375 1461.21484375 C2652.78888661 1458.29336697 2656.08260164 1455.40894251 2659.3828125 1452.53125 C2659.91648437 1452.0259375 2660.45015625 1451.520625 2661 1451 C2661 1450.67 2661 1450.34 2661 1450 C2587.62428113 1442.03433447 2514.22792619 1434.26758331 2440.82596933 1426.54794952 C2428.33702167 1425.23447587 2415.84815333 1423.92024868 2403.35928501 1422.60602088 C2359.20274619 1417.95945081 2315.04603015 1413.31457877 2270.88842108 1408.67818999 C2248.96633206 1406.37635428 2227.04466619 1404.07051839 2205.12336189 1401.76122147 C2191.73642996 1400.35111897 2178.34917577 1398.94415895 2164.96146295 1397.54148931 C2155.84383028 1396.58592611 2146.72660652 1395.62652438 2137.6096867 1394.66418397 C2132.37843562 1394.1121141 2127.1470292 1393.56165895 2121.91511726 1393.0158844 C2085.98670147 1389.26586147 2085.98670147 1389.26586147 2069.09602356 1386.88490295 C2068.03003077 1386.7355421 2066.96403798 1386.58618125 2065.86574239 1386.43229431 C2041.92849652 1382.90285041 2019.26575368 1375.48161472 1998 1364 C1997.39849121 1363.67918457 1996.79698242 1363.35836914 1996.17724609 1363.02783203 C1980.0438024 1354.3649603 1965.75601226 1343.25802548 1952.25 1330.9375 C1951.73107178 1330.46715332 1951.21214355 1329.99680664 1950.67749023 1329.51220703 C1937.06818004 1316.91683909 1925.91547027 1301.18559624 1917 1285 C1916.59104492 1284.26426758 1916.18208984 1283.52853516 1915.76074219 1282.77050781 C1908.00548566 1268.71082787 1901.43344715 1254.15880967 1894.97119141 1239.47216797 C1892.76759767 1234.4669646 1890.54643811 1229.4696124 1888.32421875 1224.47265625 C1887.91414078 1223.55052338 1887.50406281 1222.6283905 1887.08155823 1221.67831421 C1886.23481702 1219.7743781 1885.38804022 1217.87045782 1884.54122925 1215.96655273 C1883.2422684 1213.04511116 1881.94433723 1210.12321425 1880.64672852 1207.20117188 C1875.2837187 1195.12545651 1869.901622 1183.05848844 1864.5 1171 C1858.37376419 1157.32227557 1852.27237186 1143.63367661 1846.1875 1129.9375 C1845.77034729 1128.99862946 1845.35319458 1128.05975891 1844.92340088 1127.09243774 C1840.67497817 1117.53016006 1836.42878353 1107.96689536 1832.18510437 1098.4025116 C1830.08242054 1093.66387052 1827.97890869 1088.92559737 1825.875 1084.1875 C1825.46021393 1083.25328217 1825.04542786 1082.31906433 1824.61807251 1081.35653687 C1818.37924113 1067.30887629 1812.08361528 1053.28764626 1805.75918579 1039.27835083 C1799.72801548 1025.91224592 1793.81439651 1012.4973475 1787.9418335 999.06091309 C1781.84132702 985.11035597 1775.60257461 971.22673046 1769.30252075 957.36529541 C1763.05201665 943.60707793 1756.93369725 929.79585437 1750.88525391 915.94775391 C1745.19153752 902.91823838 1739.38357495 889.94482429 1733.5 877 C1726.84792481 862.36434986 1720.31994947 847.68019093 1713.88525391 832.94775391 C1707.81067102 819.04666248 1701.60113286 805.21116229 1695.31835938 791.40301514 C1690.77963242 781.42538979 1686.29008254 771.42960275 1681.90625 761.3828125 C1681.49177612 760.43355896 1681.07730225 759.48430542 1680.65026855 758.50628662 C1678.65774259 753.93868163 1676.67264155 749.36801594 1674.69726562 744.79296875 C1673.98579112 743.15620042 1673.27420853 741.51947908 1672.5625 739.8828125 C1672.24462524 739.14008087 1671.92675049 738.39734924 1671.59924316 737.6321106 C1670.05678059 734.0966524 1668.50232796 730.95286178 1666 728 Z " fill="#FEFEFE" transform="translate(0,0)"/>
<path d="M0 0 C1.3624585 0.2180127 1.3624585 0.2180127 2.75244141 0.44042969 C25.5201508 4.21059079 47.8001166 10.68715845 68 22 C69.15886719 22.61230469 70.31773438 23.22460938 71.51171875 23.85546875 C85.82076945 31.62690166 98.320214 41.71965949 110 53 C110.9827632 53.91960193 111.9658395 54.83886937 112.94921875 55.7578125 C149.22608155 90.21726861 170.15753876 140.79050037 189.85446167 185.85183716 C193.66291036 194.54696354 197.58733841 203.18925671 201.51098633 211.83285522 C208.49252675 227.21373904 215.41927932 242.61656817 222.25585938 258.0625 C226.05805174 266.6495365 229.87402749 275.23046907 233.6875 283.8125 C234.11892303 284.78353668 234.55034607 285.75457336 234.99484253 286.7550354 C241.15230977 300.612888 247.33114784 314.46098114 253.53036499 328.30020142 C259.80802486 342.31603189 266.04812738 356.3483753 272.28076172 370.38427734 C278.00091668 383.2650084 283.73849295 396.13771435 289.5 409 C295.62619373 422.67774336 301.72762807 436.36632324 307.8125 450.0625 C308.22965271 451.00137054 308.64680542 451.94024109 309.07659912 452.90756226 C313.32502183 462.46983994 317.57121647 472.03310464 321.81489563 481.5974884 C323.91757946 486.33612948 326.02109131 491.07440263 328.125 495.8125 C328.53978607 496.74671783 328.95457214 497.68093567 329.38192749 498.64346313 C335.62075887 512.69112371 341.91638472 526.71235374 348.24081421 540.72164917 C354.27198452 554.08775408 360.18560349 567.5026525 366.0581665 580.93908691 C372.15867298 594.88964403 378.39742539 608.77326954 384.69747925 622.63470459 C390.94798335 636.39292207 397.06630275 650.20414563 403.11474609 664.05224609 C408.80846953 677.08177775 414.61734133 690.05474872 420.5 703 C426.72890793 716.71420986 432.90039651 730.45205073 438.97070312 744.23730469 C439.7775563 746.06923697 440.58564859 747.90062402 441.39501953 749.73144531 C442.5107225 752.25677549 443.62142974 754.78423747 444.73046875 757.3125 C445.06382736 758.0655542 445.39718597 758.8186084 445.74064636 759.59448242 C448 764.77034168 448 764.77034168 448 767 C448.62296715 767.04665519 449.2459343 767.09331038 449.88777924 767.14137936 C466.17746802 768.3732911 482.41467463 769.91122758 498.65625 771.66015625 C501.13397529 771.92439732 503.61173422 772.18832323 506.08952332 772.45196533 C511.41879652 773.01958693 516.74786289 773.58909359 522.07675171 774.16030884 C530.73152848 775.08794635 539.38683785 776.01055685 548.04223633 776.93237305 C550.30951094 777.17386927 552.57678486 777.415372 554.84405869 777.65687555 C556.37621024 777.82007444 557.90836246 777.98326704 559.44051534 778.14645344 C564.93034717 778.73120227 570.42011629 779.31653769 575.90986633 779.90205383 C598.55706259 782.31719482 621.20573553 784.71814726 643.85546875 787.109375 C644.666876 787.19503959 645.47828325 787.28070418 646.3142786 787.36896467 C656.25774536 788.41869644 666.2012743 789.46783855 676.14482546 790.51677048 C685.42129584 791.49535331 694.69770926 792.47447563 703.97412109 793.45361328 C707.38307673 793.81342808 710.79203269 794.17323993 714.20098877 794.53305054 C715.04723627 794.62237118 715.89348377 794.71169183 716.76537514 794.80371916 C722.7673034 795.43721032 728.76923958 796.07062645 734.7711792 796.70401001 C758.52115319 799.21036353 782.27098394 801.71807128 806.02073264 804.22655869 C810.44117346 804.69344967 814.86161604 805.1603239 819.28205872 805.62719727 C820.15297695 805.71918097 821.02389517 805.81116467 821.92120486 805.90593576 C830.62781993 806.82550019 839.3344358 807.74505706 848.0410533 808.66459846 C849.76290632 808.84645064 851.48475926 809.02830362 853.20661211 809.21015739 C892.51981805 813.36222299 931.83327364 817.51182277 971.14849758 821.64474583 C977.77951614 822.34190804 984.41042679 823.04008861 991.04125977 823.73901367 C992.38342166 823.88047711 992.38342166 823.88047711 993.75269794 824.02479839 C997.26560441 824.39507477 1000.77850897 824.76536912 1004.291399 825.13580132 C1013.66434555 826.12410874 1023.0375886 827.10944402 1032.41162109 828.08740234 C1224.48471293 848.1289325 1224.48471293 848.1289325 1287.67333984 911.99414062 C1291.6138678 916.8760487 1295.34403765 921.90265302 1299 927 C1299.45503906 927.63164063 1299.91007812 928.26328125 1300.37890625 928.9140625 C1316.2932035 951.24158402 1326.56987804 976.42860882 1333 1003 C1333.21172852 1003.86238281 1333.42345703 1004.72476563 1333.64160156 1005.61328125 C1339.63593838 1031.26258301 1339.92323771 1062.27456562 1334 1088 C1333.79600586 1088.88703613 1333.59201172 1089.77407227 1333.38183594 1090.68798828 C1320.53395878 1144.61353963 1284.58419005 1191.13577048 1242.6875 1226.53125 C1240.87059567 1228.11262969 1239.1878872 1229.78197196 1237.5 1231.5 C1234.60000647 1234.4454073 1231.56373569 1237.15463709 1228.43359375 1239.8515625 C1225.23404956 1242.67620023 1222.11944338 1245.58747736 1219 1248.5 C1214.74085785 1252.47363492 1210.4566505 1256.39639572 1206.046875 1260.203125 C1203.36932097 1262.55364953 1200.74715185 1264.96314604 1198.125 1267.375 C1192.78366259 1272.28795947 1187.40204539 1277.15379208 1182 1282 C1180.33307353 1283.49971128 1178.66640851 1284.99971321 1177 1286.5 C1157 1304.5 1137 1322.5 1117 1340.5 C1116.17242188 1341.24507812 1115.34484375 1341.99015625 1114.4921875 1342.7578125 C1112.85260121 1344.23292618 1111.21200345 1345.70691652 1109.5703125 1347.1796875 C1104.9796939 1351.30097768 1100.41552893 1355.44873788 1095.875 1359.625 C1092.00632178 1363.18253099 1088.09665875 1366.68289575 1084.125 1370.125 C1081.38176582 1372.54550075 1078.69115432 1375.02200642 1076 1377.5 C1072.09018405 1381.10012756 1068.14133532 1384.64417605 1064.125 1388.125 C1061.38176582 1390.54550075 1058.69115432 1393.02200642 1056 1395.5 C1052.09018405 1399.10012756 1048.14133532 1402.64417605 1044.125 1406.125 C1040.84491419 1409.01919336 1037.63731943 1411.99218892 1034.41967773 1414.95532227 C1031.66526572 1417.48740116 1028.89257501 1419.99035268 1026.0625 1422.4375 C1022.47041409 1425.54964124 1018.98448008 1428.76872086 1015.5 1432 C1011.41698978 1435.78631688 1007.30230283 1439.51767049 1003.08984375 1443.16015625 C1000.35629441 1445.56670156 997.67885994 1448.03303196 995 1450.5 C991.09020819 1454.10015323 987.14133464 1457.64417664 983.125 1461.125 C980.38176582 1463.54550075 977.69115432 1466.02200642 975 1468.5 C971.09018405 1472.10012756 967.14133532 1475.64417605 963.125 1479.125 C959.84491419 1482.01919336 956.63731943 1484.99218892 953.41967773 1487.95532227 C950.66526572 1490.48740116 947.89257501 1492.99035268 945.0625 1495.4375 C941.47041409 1498.54964124 937.98448008 1501.76872086 934.5 1505 C930.41698978 1508.78631688 926.30230283 1512.51767049 922.08984375 1516.16015625 C919.35629441 1518.56670156 916.67885994 1521.03303196 914 1523.5 C910.09020819 1527.10015323 906.14133464 1530.64417664 902.125 1534.125 C899.38176582 1536.54550075 896.69115432 1539.02200642 894 1541.5 C890.09018405 1545.10012756 886.14133532 1548.64417605 882.125 1552.125 C879.38176582 1554.54550075 876.69115432 1557.02200642 874 1559.5 C870.69971077 1562.53888018 867.39050717 1565.56156045 864 1568.5 C860.12182987 1571.86322638 856.34472189 1575.33335671 852.56689453 1578.80810547 C847.74415109 1583.24223628 842.8765888 1587.6251824 838 1592 C836.33307353 1593.49971128 834.66640851 1594.99971321 833 1596.5 C816.33333333 1611.5 799.66666667 1626.5 783 1641.5 C782.17242188 1642.24507812 781.34484375 1642.99015625 780.4921875 1643.7578125 C778.85260121 1645.23292618 777.21200345 1646.70691652 775.5703125 1648.1796875 C771.50421261 1651.83008389 767.45311599 1655.4951749 763.43115234 1659.1940918 C759.47108974 1662.83543584 755.5105959 1666.47681853 751.5 1670.0625 C750.9121875 1670.58972656 750.324375 1671.11695313 749.71875 1671.66015625 C747.90239967 1673.07608389 746.06750642 1673.99905165 744 1675 C744.20765739 1675.97311127 744.20765739 1675.97311127 744.41950989 1676.96588135 C750.52481014 1705.57801537 756.62889331 1734.19043555 762.6875 1762.8125 C762.90978271 1763.86247162 763.13206543 1764.91244324 763.36108398 1765.99423218 C766.93133331 1782.86716174 770.44756128 1799.75104225 773.95046997 1816.63806152 C776.47820314 1828.8158998 779.06666274 1840.97327374 781.8137207 1853.10375977 C784.2014859 1863.72566144 786.35222521 1874.39478942 788.52105713 1885.0630188 C790.58959499 1895.23050941 792.70909463 1905.37973671 795 1915.5 C797.6757232 1927.32022776 800.1064175 1939.18485308 802.52050781 1951.06054688 C804.58923346 1961.22885936 806.70890866 1971.37891518 809 1981.5 C811.6757232 1993.32022776 814.1064175 2005.18485308 816.52050781 2017.06054688 C818.58923346 2027.22885936 820.70890866 2037.37891518 823 2047.5 C825.48342093 2058.47071665 827.75919039 2069.47781667 830 2080.5 C832.22420777 2091.43765135 834.47726806 2102.36240214 836.9375 2113.25 C839.44839831 2124.37274891 841.80247245 2135.52428166 844.125 2146.6875 C847.68707961 2163.80538394 851.3258939 2180.90582172 855 2198 C858.87901752 2216.05640698 862.73688316 2234.11653029 866.49169922 2252.19921875 C868.55431439 2262.12641456 870.64860935 2272.04603875 872.77661514 2281.95944786 C883.2541278 2330.80713968 883.2541278 2330.80713968 887.1875 2355.1875 C887.32416077 2356.02885498 887.46082153 2356.87020996 887.60162354 2357.73706055 C890.59380277 2376.34581673 892.41776794 2394.70227163 892.375 2413.5625 C892.37445618 2414.47487427 892.37391235 2415.38724854 892.37335205 2416.32727051 C892.33189147 2431.5363368 891.37023259 2446.11608848 888 2461 C887.78569336 2461.95696777 887.57138672 2462.91393555 887.35058594 2463.89990234 C875.46463132 2515.15483764 841.78284409 2558.55719939 798 2587 C776.34212771 2600.39530405 752.10548571 2610.41175606 727 2615 C726.3080957 2615.13390137 725.61619141 2615.26780273 724.90332031 2615.40576172 C703.88943037 2619.36871211 681.05463183 2620.0461035 660 2616 C659.17612793 2615.84934082 658.35225586 2615.69868164 657.50341797 2615.54345703 C616.00979532 2607.80660208 578.21687815 2588.56677489 541.91699219 2567.66796875 C537.86827777 2565.35286857 533.79309286 2563.08644448 529.71777344 2560.81860352 C519.48632739 2555.12417521 509.33098637 2549.31459489 499.23071289 2543.39086914 C491.51842111 2538.87168832 483.76692029 2534.4242639 476 2530 C466.3250039 2524.48768825 456.68717423 2518.91575176 447.078125 2513.2890625 C439.4142623 2508.80833854 431.71321165 2504.39493248 424 2500 C414.32518781 2494.48736165 404.68717863 2488.91575433 395.078125 2483.2890625 C387.4142623 2478.80833854 379.71321165 2474.39493248 372 2470 C362.32518781 2464.48736165 352.68717863 2458.91575433 343.078125 2453.2890625 C335.4142623 2448.80833854 327.71321165 2444.39493248 320 2440 C310.32518781 2434.48736165 300.68717863 2428.91575433 291.078125 2423.2890625 C283.4142623 2418.80833854 275.71321165 2414.39493248 268 2410 C259.30598314 2405.04621177 250.63502771 2400.05621631 242 2395 C233.4048271 2389.9681021 224.77687778 2384.99610876 216.125 2380.0625 C203.79974804 2373.03396493 191.50277933 2365.95759566 179.21777344 2358.85888672 C173.81329355 2355.73675395 168.40652588 2352.61858796 163 2349.5 C160.8333225 2348.25001878 158.66665583 2347.00001879 156.5 2345.75 C154.89125 2344.821875 154.89125 2344.821875 153.25 2343.875 C115.33333333 2322 77.41666667 2300.125 39.5 2278.25 C38.42717773 2277.63108887 37.35435547 2277.01217773 36.24902344 2276.37451172 C34.08552524 2275.12628966 31.92211357 2273.87791761 29.75878906 2272.62939453 C24.29434983 2269.47594744 18.82836355 2266.32523904 13.359375 2263.1796875 C12.26447754 2262.54933594 11.16958008 2261.91898438 10.04150391 2261.26953125 C7.86746795 2260.01819473 5.69267691 2258.76816905 3.51708984 2257.51953125 C-1.81951615 2254.44815025 -7.12352347 2251.33503437 -12.3828125 2248.1328125 C-13.39311523 2247.52131348 -14.40341797 2246.90981445 -15.44433594 2246.27978516 C-17.35258213 2245.12091189 -19.25465972 2243.95179953 -21.14941406 2242.77099609 C-21.9947168 2242.25875488 -22.84001953 2241.74651367 -23.7109375 2241.21875 C-24.44618652 2240.76435547 -25.18143555 2240.30996094 -25.93896484 2239.84179688 C-28.4764768 2238.80539066 -29.47282985 2239.02691608 -32 2240 C-34.62162221 2241.3490186 -37.18603266 2242.73614456 -39.75 2244.1875 C-40.53584473 2244.62819824 -41.32168945 2245.06889648 -42.13134766 2245.52294922 C-49.6062196 2249.73526794 -57.01074352 2254.06802119 -64.41357422 2258.40527344 C-72.20529378 2262.96681576 -80.03133308 2267.46609044 -87.875 2271.9375 C-100.20049481 2278.96560673 -112.49722363 2286.04240605 -124.78222656 2293.14111328 C-130.18670645 2296.26324605 -135.59347412 2299.38141204 -141 2302.5 C-143.1666775 2303.74998122 -145.33334417 2304.99998121 -147.5 2306.25 C-254.75 2368.125 -362 2430 -524.5 2523.75 C-525.57233887 2524.36866943 -526.64467773 2524.98733887 -527.74951172 2525.62475586 C-529.91776264 2526.8756448 -532.08605697 2528.12645852 -534.25439453 2529.37719727 C-539.64717915 2532.48798335 -545.03922093 2535.60004238 -550.4296875 2538.71484375 C-556.95008674 2542.48184475 -563.47388235 2546.24291512 -570 2550 C-571.12132324 2550.64582031 -572.24264648 2551.29164063 -573.39794922 2551.95703125 C-662.72516078 2603.35597721 -662.72516078 2603.35597721 -708.6875 2613.9375 C-709.90336792 2614.21823364 -709.90336792 2614.21823364 -711.14379883 2614.50463867 C-724.32044798 2617.33851168 -737.53697579 2618.4162359 -751 2618.375 C-751.7106662 2618.37412384 -752.4213324 2618.37324768 -753.15353394 2618.37234497 C-808.35005287 2618.1500544 -857.49790532 2592.5369584 -896.4375 2554.8125 C-902.53958802 2548.64999527 -907.8267735 2541.94980469 -913 2535 C-913.63679688 2534.14664063 -914.27359375 2533.29328125 -914.9296875 2532.4140625 C-940.54745741 2496.8797365 -951.48182512 2456.83822473 -951.3125 2413.4375 C-951.31001251 2412.41655243 -951.30752502 2411.39560486 -951.30496216 2410.34371948 C-951.24840434 2395.32798549 -950.66559555 2380.80186975 -948 2366 C-947.75456181 2364.57395319 -947.51052504 2363.14766476 -947.26757812 2361.72119141 C-941.92961969 2330.42650271 -935.56010695 2299.34344031 -928.93682861 2268.29876709 C-928.17912218 2264.74505301 -927.42363988 2261.19086608 -926.66796875 2257.63671875 C-925.56391769 2252.4447751 -924.45931327 2247.25294985 -923.35394287 2242.06128693 C-921.38816237 2232.82817401 -919.42702416 2223.59408269 -917.46875 2214.359375 C-917.25358482 2213.34472546 -917.25358482 2213.34472546 -917.03407288 2212.30957794 C-916.31162954 2208.90264784 -915.58926788 2205.49570042 -914.86694336 2202.08874512 C-913.55776261 2195.91398658 -912.24785166 2189.73938293 -910.93800354 2183.56476593 C-910.20863986 2180.12651681 -909.47932223 2176.68825792 -908.75 2173.25 C-908.45833355 2171.87499995 -908.16666689 2170.49999995 -907.875 2169.125 C-907.730625 2168.444375 -907.58625 2167.76375 -907.4375 2167.0625 C-878.12499979 2028.87499901 -878.12499979 2028.87499901 -877.68749905 2026.81249619 C-877.39583519 2025.43750898 -877.1041717 2024.06252169 -876.81250858 2022.68753433 C-876.08330194 2019.24983794 -875.3540889 2015.81214292 -874.62486267 2012.37445068 C-873.31283313 2006.18929723 -872.00084816 2000.00413434 -870.68910503 1993.81892014 C-869.96073737 1990.38448165 -869.23233181 1986.9500512 -868.50390625 1983.515625 C-868.35965273 1982.83548592 -868.21539921 1982.15534683 -868.06677437 1981.45459747 C-866.01540846 1971.7830096 -863.96190289 1962.11187793 -861.90711212 1952.44101715 C-854.60110201 1918.05352853 -847.34877857 1883.65523315 -840.14556885 1849.24606323 C-837.95617161 1838.78799866 -835.76281119 1828.33077402 -833.5625 1817.875 C-833.40259583 1817.11513794 -833.24269165 1816.35527588 -833.07794189 1815.5723877 C-830.83914226 1804.938594 -828.57262895 1794.31091979 -826.28735352 1783.68701172 C-824.16302035 1773.79730708 -822.07999444 1763.89909947 -820 1754 C-814.45899275 1727.6389583 -808.77632761 1701.31037356 -803 1675 C-803.58555664 1674.73662842 -804.17111328 1674.47325684 -804.77441406 1674.2019043 C-807.09856286 1672.94677217 -808.70607738 1671.59314046 -810.609375 1669.76953125 C-811.61871094 1668.81143555 -811.61871094 1668.81143555 -812.6484375 1667.83398438 C-813.34195313 1667.16689453 -814.03546875 1666.49980469 -814.75 1665.8125 C-819.46073992 1661.31222089 -824.21060107 1656.89537313 -829.13378906 1652.62768555 C-831.80228948 1650.30025327 -834.39919249 1647.90291998 -837 1645.5 C-840.29952777 1642.46031004 -843.60951607 1639.43841941 -847 1636.5 C-850.93167214 1633.09255081 -854.75361244 1629.56870327 -858.58032227 1626.04467773 C-861.33473428 1623.51259884 -864.10742499 1621.00964732 -866.9375 1618.5625 C-871.12032011 1614.93855356 -875.16271807 1611.16744254 -879.22021484 1607.40478516 C-882.73212744 1604.15384488 -886.29001418 1600.97015687 -889.91015625 1597.83984375 C-892.64370559 1595.43329844 -895.32114006 1592.96696804 -898 1590.5 C-901.30026876 1587.46109823 -904.60949347 1584.438439 -908 1581.5 C-911.9308925 1578.0932265 -915.75196573 1574.56997215 -919.578125 1571.046875 C-922.35494057 1568.49444857 -925.14980717 1565.97016712 -928 1563.5 C-931.93167214 1560.09255081 -935.75361244 1556.56870327 -939.58032227 1553.04467773 C-942.33473428 1550.51259884 -945.10742499 1548.00964732 -947.9375 1545.5625 C-952.12032011 1541.93855356 -956.16271807 1538.16744254 -960.22021484 1534.40478516 C-963.73212744 1531.15384488 -967.29001418 1527.97015687 -970.91015625 1524.83984375 C-973.64370559 1522.43329844 -976.32114006 1519.96696804 -979 1517.5 C-982.30026876 1514.46109823 -985.60949347 1511.438439 -989 1508.5 C-992.9308925 1505.0932265 -996.75196573 1501.56997215 -1000.578125 1498.046875 C-1003.35494057 1495.49444857 -1006.14980717 1492.97016712 -1009 1490.5 C-1012.93167214 1487.09255081 -1016.75361244 1483.56870327 -1020.58032227 1480.04467773 C-1023.33473428 1477.51259884 -1026.10742499 1475.00964732 -1028.9375 1472.5625 C-1033.12032011 1468.93855356 -1037.16271807 1465.16744254 -1041.22021484 1461.40478516 C-1044.73212744 1458.15384488 -1048.29001418 1454.97015687 -1051.91015625 1451.83984375 C-1054.64370559 1449.43329844 -1057.32114006 1446.96696804 -1060 1444.5 C-1063.30026876 1441.46109823 -1066.60949347 1438.438439 -1070 1435.5 C-1073.9308925 1432.0932265 -1077.75196573 1428.56997215 -1081.578125 1425.046875 C-1084.35494057 1422.49444857 -1087.14980717 1419.97016712 -1090 1417.5 C-1093.9308925 1414.0932265 -1097.75196573 1410.56997215 -1101.578125 1407.046875 C-1104.35494057 1404.49444857 -1107.14980717 1401.97016712 -1110 1399.5 C-1113.87817013 1396.13677362 -1117.65527811 1392.66664329 -1121.43310547 1389.19189453 C-1126.25584891 1384.75776372 -1131.1234112 1380.3748176 -1136 1376 C-1137.66692647 1374.50028872 -1139.33359149 1373.00028679 -1141 1371.5 C-1141.825 1370.7575 -1142.65 1370.015 -1143.5 1369.25 C-1191 1326.5 -1191 1326.5 -1193.5078125 1324.2421875 C-1195.14739879 1322.76707382 -1196.78799655 1321.29308348 -1198.4296875 1319.8203125 C-1203.0203061 1315.69902232 -1207.58447107 1311.55126212 -1212.125 1307.375 C-1215.99367822 1303.81746901 -1219.90334125 1300.31710425 -1223.875 1296.875 C-1227.15431143 1293.98148991 -1230.36106712 1291.00911641 -1233.578125 1288.046875 C-1236.35494057 1285.49444857 -1239.14980717 1282.97016712 -1242 1280.5 C-1245.9308925 1277.0932265 -1249.75196573 1273.56997215 -1253.578125 1270.046875 C-1256.35494057 1267.49444857 -1259.14980717 1264.97016712 -1262 1262.5 C-1265.87972953 1259.13542128 -1269.65857509 1255.66411092 -1273.4375 1252.1875 C-1276.60779789 1249.27210044 -1279.79394757 1246.37616922 -1283 1243.5 C-1288.70489567 1238.37464928 -1294.36702364 1233.20415167 -1300 1228 C-1300.60086426 1227.44570312 -1301.20172852 1226.89140625 -1301.82080078 1226.3203125 C-1309.70258552 1219.03547936 -1317.45927416 1211.63819908 -1325.0625 1204.0625 C-1325.75239014 1203.37720215 -1326.44228027 1202.6919043 -1327.15307617 1201.98583984 C-1331.63833395 1197.48694243 -1335.86276732 1192.81907595 -1340 1188 C-1340.86882812 1187.01257812 -1341.73765625 1186.02515625 -1342.6328125 1185.0078125 C-1377.03364862 1145.2149958 -1396.2240457 1099.42492151 -1396.4375 1046.5625 C-1396.44394531 1045.67675293 -1396.45039062 1044.79100586 -1396.45703125 1043.87841797 C-1396.5116466 1031.61044588 -1395.39587457 1020.0274858 -1393 1008 C-1392.81735596 1007.02490479 -1392.63471191 1006.04980957 -1392.4465332 1005.04516602 C-1385.89440468 971.27497092 -1369.65695944 938.84633033 -1347 913 C-1346.28457031 912.175 -1345.56914063 911.35 -1344.83203125 910.5 C-1294.92970284 853.9734687 -1221.49324172 841.61602167 -1150.0225563 834.25484085 C-1145.70387971 833.80746279 -1141.38659103 833.34700379 -1137.0690918 832.88842773 C-1129.19457813 832.05381957 -1121.31922095 831.22754664 -1113.44335938 830.40576172 C-1100.4955867 829.05439118 -1087.54955691 827.68666006 -1074.60367948 826.31727773 C-1019.33540963 820.47116065 -964.06101528 814.68428682 -908.78179932 808.94259644 C-884.5210148 806.42232107 -860.26557438 803.86132321 -836.01696777 801.22610474 C-806.85419733 798.05972564 -777.67659061 795.03589602 -748.5 792 C-703.49257485 787.32002133 -703.49257485 787.32002133 -658.5 782.5 C-629.24099971 779.31959041 -599.97016784 776.25216285 -570.69844973 773.19139278 C-566.0394353 772.70414471 -561.38053656 772.21580319 -556.72167969 771.72705078 C-550.42022699 771.06608906 -544.1185552 770.40725702 -537.8167057 769.75008965 C-535.45860942 769.50387603 -533.10058514 769.25697172 -530.74263573 769.00935555 C-527.48837252 768.66778592 -524.23385078 768.32879539 -520.97924805 767.99047852 C-520.02024849 767.88924934 -519.06124893 767.78802017 -518.07318878 767.68372345 C-517.19416145 767.59288734 -516.31513412 767.50205124 -515.4094696 767.40846252 C-514.64953044 767.32906213 -513.88959127 767.24966173 -513.10662365 767.16785526 C-511.0767471 767.00611519 -509.03631006 767 -507 767 C-506.61714844 765.76765625 -506.23429687 764.5353125 -505.83984375 763.265625 C-503.8250558 757.23882177 -501.19912574 751.52571983 -498.5625 745.75 C-497.38976301 743.16113348 -496.22046578 740.57071557 -495.05078125 737.98046875 C-494.73466888 737.28155014 -494.41855652 736.58263153 -494.09286499 735.86253357 C-490.19871816 727.24473911 -486.36831484 718.59863659 -482.53317261 709.95446777 C-475.87956569 694.95881039 -469.20672343 679.97197453 -462.5 665 C-456.37376419 651.32227557 -450.27237186 637.63367661 -444.1875 623.9375 C-443.77034729 622.99862946 -443.35319458 622.05975891 -442.92340088 621.09243774 C-438.67497817 611.53016006 -434.42878353 601.96689536 -430.18510437 592.4025116 C-428.08242054 587.66387052 -425.97890869 582.92559737 -423.875 578.1875 C-423.25282089 576.78617325 -423.25282089 576.78617325 -422.61807251 575.35653687 C-416.37924113 561.30887629 -410.08361528 547.28764626 -403.75918579 533.27835083 C-397.72801548 519.91224592 -391.81439651 506.4973475 -385.9418335 493.06091309 C-379.84132702 479.11035597 -373.60257461 465.22673046 -367.30252075 451.36529541 C-361.43609525 438.45248764 -355.67680733 425.49722816 -350 412.5 C-343.55066463 397.7340447 -336.96939268 383.03355576 -330.30224609 368.36474609 C-324.4359168 355.45212 -318.67672517 342.49704006 -313 329.5 C-306.55066463 314.7340447 -299.96939268 300.03355576 -293.30224609 285.36474609 C-287.43591226 272.45211 -281.67730833 259.49679143 -276 246.5 C-267.5813865 227.23394904 -258.94491058 208.07083909 -250.24121094 188.93212891 C-248.09487957 184.21138034 -245.95683294 179.48691371 -243.8203125 174.76171875 C-212.38544185 105.26896477 -176.83697485 39.24730956 -101.85888672 10.44189453 C-69.55533609 -1.53598217 -34.07221168 -5.59425598 0 0 Z M-30 379 C-40.64726225 402.44256048 -51.21515369 425.91827935 -61.65527344 449.45385742 C-62.49152217 451.33903628 -63.3277851 453.22420885 -64.1640625 455.109375 C-64.57305786 456.03140213 -64.98205322 456.95342926 -65.40344238 457.90339661 C-69.41573249 466.94452047 -73.45559092 475.97320942 -77.5 485 C-83.69201857 498.82211726 -89.85331858 512.65766407 -96 526.5 C-102.14668225 540.3423378 -108.30845281 554.17767054 -114.5 568 C-120.62619373 581.67774336 -126.72762807 595.36632324 -132.8125 609.0625 C-133.22965271 610.00137054 -133.64680542 610.94024109 -134.07659912 611.90756226 C-138.32502183 621.46983994 -142.57121647 631.03310464 -146.81489563 640.5974884 C-148.91757946 645.33612948 -151.02109131 650.07440263 -153.125 654.8125 C-153.53978607 655.74671783 -153.95457214 656.68093567 -154.38192749 657.64346313 C-160.62075887 671.69112371 -166.91638472 685.71235374 -173.24081421 699.72164917 C-179.27198452 713.08775408 -185.18560349 726.5026525 -191.0581665 739.93908691 C-197.15867298 753.88964403 -203.39742539 767.77326954 -209.69747925 781.63470459 C-215.56390587 794.54751482 -221.32305701 807.50282938 -227 820.5 C-233.97205772 836.46108011 -241.09444113 852.34928728 -248.29663086 868.20776367 C-252.76808121 878.05488677 -257.19517693 887.91875049 -261.5625 897.8125 C-273.48291897 924.67704407 -285.81389538 949.93374973 -305.9140625 971.7265625 C-307.8522255 973.8389424 -309.71023271 975.99998072 -311.5625 978.1875 C-315.0775531 982.1967329 -318.89134282 985.60986792 -323 989 C-323.49967285 989.42265137 -323.9993457 989.84530273 -324.51416016 990.28076172 C-339.31135017 1002.77336439 -355.42830139 1012.88352652 -373 1021 C-374.12277344 1021.53109375 -375.24554687 1022.0621875 -376.40234375 1022.609375 C-402.26036178 1034.316389 -430.63828505 1038.21737016 -458.61987305 1041.13110352 C-461.31723645 1041.42067881 -464.0144919 1041.71114829 -466.71165752 1042.00254917 C-473.58567935 1042.74285087 -480.46106842 1043.46970575 -487.33693117 1044.19268538 C-493.55752597 1044.84709771 -499.77752261 1045.50700096 -505.99725723 1046.16953659 C-533.07430813 1049.05345215 -560.15404218 1051.91150874 -587.23476102 1054.76075628 C-599.52264508 1056.05368549 -611.81028647 1057.3489145 -624.09791573 1058.64426262 C-646.09337857 1060.96295969 -668.08899051 1063.280239 -690.0847168 1065.59643555 C-691.39040895 1065.73392806 -692.6961011 1065.87142058 -694.04135969 1066.01307953 C-696.68302501 1066.29125274 -699.32469035 1066.56942589 -701.96635569 1066.84759897 C-703.2754234 1066.98544685 -704.58449111 1067.12329474 -705.93322754 1067.26531982 C-707.24298269 1067.40323986 -708.55273784 1067.5411599 -709.90218254 1067.68325933 C-724.4285533 1069.21294098 -738.9548841 1070.74300192 -753.48120117 1072.27319336 C-754.78189274 1072.41020686 -756.08258432 1072.54722036 -757.42269079 1072.68838578 C-779.34509591 1074.99770115 -801.26741434 1077.30783871 -823.18968791 1079.61840254 C-835.40553126 1080.90588371 -847.62142361 1082.19289649 -859.8374424 1083.47871208 C-914.56705092 1089.23941773 -969.29180851 1095.038962 -1024 1101 C-1023.04112917 1102.12964539 -1022.08070809 1103.25797502 -1021.11962891 1104.38574219 C-1020.31762558 1105.32845978 -1020.31762558 1105.32845978 -1019.49942017 1106.29022217 C-1017.90238213 1108.11131294 -1016.23741752 1109.70223749 -1014.375 1111.25 C-1010.84203616 1114.25504971 -1007.40792529 1117.35467261 -1004 1120.5 C-1000.72181934 1123.51965706 -997.43417872 1126.52203151 -994.0625 1129.4375 C-989.87967989 1133.06144644 -985.83728193 1136.83255746 -981.77978516 1140.59521484 C-978.26787256 1143.84615512 -974.70998582 1147.02984313 -971.08984375 1150.16015625 C-968.35629441 1152.56670156 -965.67885994 1155.03303196 -963 1157.5 C-959.69973124 1160.53890177 -956.39050653 1163.561561 -953 1166.5 C-949.0691075 1169.9067735 -945.24803427 1173.43002785 -941.421875 1176.953125 C-938.64505943 1179.50555143 -935.85019283 1182.02983288 -933 1184.5 C-929.06832786 1187.90744919 -925.24638756 1191.43129673 -921.41967773 1194.95532227 C-918.66526572 1197.48740116 -915.89257501 1199.99035268 -913.0625 1202.4375 C-908.87967989 1206.06144644 -904.83728193 1209.83255746 -900.77978516 1213.59521484 C-897.26787256 1216.84615512 -893.70998582 1220.02984313 -890.08984375 1223.16015625 C-887.35629441 1225.56670156 -884.67885994 1228.03303196 -882 1230.5 C-878.69973124 1233.53890177 -875.39050653 1236.561561 -872 1239.5 C-868.0691075 1242.9067735 -864.24803427 1246.43002785 -860.421875 1249.953125 C-857.64505943 1252.50555143 -854.85019283 1255.02983288 -852 1257.5 C-848.06832786 1260.90744919 -844.24638756 1264.43129673 -840.41967773 1267.95532227 C-837.66526572 1270.48740116 -834.89257501 1272.99035268 -832.0625 1275.4375 C-827.87967989 1279.06144644 -823.83728193 1282.83255746 -819.77978516 1286.59521484 C-816.26787256 1289.84615512 -812.70998582 1293.02984313 -809.08984375 1296.16015625 C-806.35629441 1298.56670156 -803.67885994 1301.03303196 -801 1303.5 C-797.69973124 1306.53890177 -794.39050653 1309.561561 -791 1312.5 C-787.0691075 1315.9067735 -783.24803427 1319.43002785 -779.421875 1322.953125 C-776.64505943 1325.50555143 -773.85019283 1328.02983288 -771 1330.5 C-767.06832786 1333.90744919 -763.24638756 1337.43129673 -759.41967773 1340.95532227 C-756.66526572 1343.48740116 -753.89257501 1345.99035268 -751.0625 1348.4375 C-746.87967989 1352.06144644 -742.83728193 1355.83255746 -738.77978516 1359.59521484 C-735.26787256 1362.84615512 -731.70998582 1366.02984313 -728.08984375 1369.16015625 C-725.35629441 1371.56670156 -722.67885994 1374.03303196 -720 1376.5 C-716.69973124 1379.53890177 -713.39050653 1382.561561 -710 1385.5 C-706.0691075 1388.9067735 -702.24803427 1392.43002785 -698.421875 1395.953125 C-695.64505943 1398.50555143 -692.85019283 1401.02983288 -690 1403.5 C-686.06832786 1406.90744919 -682.24638756 1410.43129673 -678.41967773 1413.95532227 C-675.66526572 1416.48740116 -672.89257501 1418.99035268 -670.0625 1421.4375 C-665.87967989 1425.06144644 -661.83728193 1428.83255746 -657.77978516 1432.59521484 C-654.26787256 1435.84615512 -650.70998582 1439.02984313 -647.08984375 1442.16015625 C-644.35629441 1444.56670156 -641.67885994 1447.03303196 -639 1449.5 C-635.69973124 1452.53890177 -632.39050653 1455.561561 -629 1458.5 C-625.0691075 1461.9067735 -621.24803427 1465.43002785 -617.421875 1468.953125 C-614.64505943 1471.50555143 -611.85019283 1474.02983288 -609 1476.5 C-605.12070495 1479.86420193 -601.3407809 1483.33361086 -597.56469727 1486.8125 C-594.38362464 1489.74102716 -591.1721377 1492.63048039 -587.9375 1495.5 C-578.82176705 1503.71000308 -570.57355923 1512.35131198 -563 1522 C-562.20980469 1522.96164062 -561.41960937 1523.92328125 -560.60546875 1524.9140625 C-553.30935826 1533.99111335 -547.50488199 1543.75100387 -542 1554 C-541.63132812 1554.68513672 -541.26265625 1555.37027344 -540.8828125 1556.07617188 C-526.27216216 1583.78697299 -518.87892092 1615.5278215 -518.70483398 1646.74267578 C-518.69353911 1648.13210414 -518.67346593 1649.52149753 -518.64331055 1650.91064453 C-518.10476209 1675.93660011 -523.89773632 1700.65109254 -529.07176208 1724.99769974 C-529.75260712 1728.20923123 -530.42641445 1731.42222566 -531.10037804 1734.63520718 C-533.4866858 1746.01059263 -535.89687167 1757.38087683 -538.3103714 1768.7505188 C-539.02062455 1772.09718143 -539.73033132 1775.44395951 -540.43988037 1778.79077148 C-546.69464253 1808.29301365 -552.96792264 1837.79129242 -559.24973869 1867.28778315 C-565.87167999 1898.3816342 -572.47207843 1929.48003562 -579.06647491 1960.57973862 C-579.93876706 1964.69352224 -580.81113915 1968.80728891 -581.68353271 1972.92105103 C-581.82776751 1973.60118962 -581.97200231 1974.28132821 -582.12060785 1974.98207706 C-582.41220224 1976.35708759 -582.70379691 1977.73209806 -582.99539185 1979.10710847 C-583.72559254 1982.55036238 -584.45578533 1985.99361796 -585.18597412 1989.43687439 C-585.33074298 1990.11954205 -585.47551185 1990.80220971 -585.62466764 1991.50556427 C-586.50250588 1995.6450967 -587.38030836 1999.7846367 -588.25808477 2003.92418224 C-592.72569519 2024.99316604 -597.19537484 2046.06171027 -601.6660049 2067.13005352 C-605.06493013 2083.14787411 -608.46351943 2099.16576564 -611.86010742 2115.18408203 C-612.00254006 2115.85578965 -612.14497269 2116.52749727 -612.29172146 2117.21955967 C-613.57340695 2123.26397665 -614.85505375 2129.30840183 -616.13658333 2135.35285187 C-619.34801539 2150.49980006 -622.56131901 2165.64634744 -625.77900434 2180.79196858 C-628.03219747 2191.39775883 -630.28341335 2202.00396694 -632.53262901 2212.61060143 C-633.75411912 2218.37033632 -634.9766574 2224.12984396 -636.20184326 2229.88879395 C-637.32272436 2235.15750282 -638.44085531 2240.42678729 -639.55675125 2245.69655418 C-639.96261889 2247.61074374 -640.36953573 2249.52471118 -640.77756882 2251.43844032 C-641.32943778 2254.02746991 -641.87760457 2256.61725567 -642.42480469 2259.20727539 C-642.66750375 2260.33925669 -642.66750375 2260.33925669 -642.91510582 2261.49410629 C-643.52399138 2264.39206044 -644 2267.02904471 -644 2270 C-637.81833713 2268.37160894 -632.68909366 2265.05752905 -627.25 2261.8125 C-625.08632451 2260.53580222 -622.92224834 2259.25978329 -620.7578125 2257.984375 C-619.64180664 2257.32501953 -618.52580078 2256.66566406 -617.37597656 2255.98632812 C-611.9787367 2252.81074644 -606.55236 2249.6862344 -601.125 2246.5625 C-598.94008624 2245.30341652 -596.75519051 2244.04430177 -594.5703125 2242.78515625 C-593.48524414 2242.16012207 -592.40017578 2241.53508789 -591.28222656 2240.89111328 C-585.85340058 2237.76319852 -580.42680719 2234.63141552 -575 2231.5 C-572.83334417 2230.24998121 -570.6666775 2228.99998122 -568.5 2227.75 C-567.4275 2227.13125 -566.355 2226.5125 -565.25 2225.875 C-458 2164 -350.75 2102.125 -191.5 2010.25 C-190.42717773 2009.6310083 -189.35435547 2009.0120166 -188.24902344 2008.37426758 C-186.0858071 2007.12637069 -183.92239609 2005.87881119 -181.75878906 2004.6315918 C-176.28767358 2001.47717494 -170.82023563 1998.3166724 -165.359375 1995.14453125 C-130.3070629 1974.80107208 -97.45557355 1957.38397216 -57 1951 C-56.29391602 1950.8865625 -55.58783203 1950.773125 -54.86035156 1950.65625 C-46.7279181 1949.55354716 -38.44217617 1949.75691872 -30.25 1949.75 C-29.01195618 1949.74848938 -29.01195618 1949.74848938 -27.74890137 1949.74694824 C-14.94066894 1949.75751455 -2.57268777 1950.37450224 10 1953 C10.72944824 1953.14453613 11.45889648 1953.28907227 12.21044922 1953.43798828 C46.67187462 1960.37019303 76.7491612 1977.69181442 106.734375 1995.33203125 C113.45593481 1999.28068091 120.22576299 2003.14284042 127 2007 C136.67526829 2012.51182806 146.31283237 2018.08425211 155.921875 2023.7109375 C163.5857377 2028.19166146 171.28678835 2032.60506752 179 2037 C188.67481219 2042.51263835 198.31282137 2048.08424567 207.921875 2053.7109375 C215.5857377 2058.19166146 223.28678835 2062.60506752 231 2067 C239.69401686 2071.95378823 248.36497229 2076.94378369 257 2082 C265.5951729 2087.0318979 274.22312222 2092.00389124 282.875 2096.9375 C295.20025196 2103.96603507 307.49722067 2111.04240434 319.78222656 2118.14111328 C325.18670645 2121.26324605 330.59347412 2124.38141204 336 2127.5 C338.1666775 2128.74998122 340.33334417 2129.99998121 342.5 2131.25 C343.5725 2131.86875 344.645 2132.4875 345.75 2133.125 C537.5 2243.75 537.5 2243.75 540.75585938 2245.62866211 C542.90266914 2246.86701979 545.04979984 2248.1048213 547.19726562 2249.34204102 C552.30118224 2252.28347196 557.40148134 2255.23073772 562.49072266 2258.19747925 C564.90938314 2259.60697037 567.32985862 2261.01332765 569.75048828 2262.41943359 C571.46956052 2263.41978682 573.1859782 2264.42469734 574.90234375 2265.4296875 C576.45115234 2266.32880859 576.45115234 2266.32880859 578.03125 2267.24609375 C579.40120117 2268.04551392 579.40120117 2268.04551392 580.79882812 2268.86108398 C582.88299111 2270.15318117 582.88299111 2270.15318117 585 2270 C583.36394174 2257.38921023 580.54679633 2245.01344659 577.8828125 2232.58984375 C577.35754809 2230.12678584 576.83262966 2227.66365412 576.30802917 2225.20045471 C575.17891705 2219.90207051 574.04765141 2214.60415356 572.91445923 2209.30664062 C571.09160764 2200.7846961 569.2742678 2192.26158069 567.45776367 2183.73828125 C566.83173328 2180.80111215 566.20567366 2177.86394929 565.5796051 2174.92678833 C565.42339343 2174.19391008 565.26718176 2173.46103182 565.1062364 2172.70594513 C563.98499193 2167.44584265 562.86305292 2162.18588858 561.74082947 2156.92599487 C557.51776968 2137.13143561 553.30541718 2117.33463214 549.10546875 2097.53515625 C548.96586227 2096.87702147 548.8262558 2096.21888669 548.68241882 2095.54080844 C546.98587552 2087.54263671 545.2899783 2079.54432806 543.59432483 2071.54596764 C542.15533481 2064.75839443 540.71579823 2057.97093717 539.27625132 2051.18348205 C533.05099928 2021.83117481 526.8292576 1992.47812361 520.60873818 1963.12481308 C520.10496999 1960.74764649 519.60119473 1958.3704814 519.09741783 1955.99331665 C515.72526659 1940.08114752 512.3533914 1924.16892004 508.98278332 1908.25642395 C507.31422496 1900.37924409 505.64545686 1892.50210868 503.9765625 1884.625 C503.72955074 1883.45909773 503.72955074 1883.45909773 503.47754884 1882.26964188 C498.80989162 1860.23866883 494.13356511 1838.20955416 489.44852376 1816.18227148 C488.30122282 1810.78798487 487.1543886 1805.39359921 486.00787354 1799.99914551 C485.8485087 1799.24933426 485.68914386 1798.49952302 485.52494979 1797.72699022 C484.8886649 1794.73323797 484.25239042 1791.7394835 483.61617231 1788.74571705 C481.94166746 1780.86631843 480.26621632 1772.98712432 478.58740234 1765.10864258 C459.55312645 1675.77571405 459.55312645 1675.77571405 459.6875 1649.75 C459.68965515 1648.98964447 459.6918103 1648.22928894 459.69403076 1647.44589233 C459.74994852 1635.08661304 460.40835051 1623.11997808 463 1611 C463.19867676 1610.05688965 463.39735352 1609.1137793 463.60205078 1608.14208984 C473.92811247 1560.53391779 499.80277234 1519.51100716 536.7734375 1487.94140625 C539.73952616 1485.35518509 542.61640644 1482.67750553 545.5 1480 C549.55990019 1476.23420372 553.65412448 1472.5277907 557.84375 1468.90625 C560.77240413 1466.31714998 563.63396673 1463.65803766 566.5 1461 C570.58298873 1457.21366094 574.69769814 1453.48232867 578.91015625 1449.83984375 C581.64370559 1447.43329844 584.32114006 1444.96696804 587 1442.5 C590.90979181 1438.89984677 594.85866536 1435.35582336 598.875 1431.875 C601.61823418 1429.45449925 604.30884568 1426.97799358 607 1424.5 C610.90981595 1420.89987244 614.85866468 1417.35582395 618.875 1413.875 C621.61823418 1411.45449925 624.30884568 1408.97799358 627 1406.5 C630.30028923 1403.46111982 633.60949283 1400.43843955 637 1397.5 C640.87817013 1394.13677362 644.65527811 1390.66664329 648.43310547 1387.19189453 C653.25584891 1382.75776372 658.1234112 1378.3748176 663 1374 C664.66692647 1372.50028872 666.33359149 1371.00028679 668 1369.5 C693 1347 693 1347 718 1324.5 C719.24136719 1323.38238281 719.24136719 1323.38238281 720.5078125 1322.2421875 C722.14739879 1320.76707382 723.78799655 1319.29308348 725.4296875 1317.8203125 C730.0203061 1313.69902232 734.58447107 1309.55126212 739.125 1305.375 C742.99367822 1301.81746901 746.90334125 1298.31710425 750.875 1294.875 C753.61823418 1292.45449925 756.30884568 1289.97799358 759 1287.5 C762.90981595 1283.89987244 766.85866468 1280.35582395 770.875 1276.875 C773.61823418 1274.45449925 776.30884568 1271.97799358 779 1269.5 C782.90981595 1265.89987244 786.85866468 1262.35582395 790.875 1258.875 C794.15508581 1255.98080664 797.36268057 1253.00781108 800.58032227 1250.04467773 C803.33473428 1247.51259884 806.10742499 1245.00964732 808.9375 1242.5625 C812.52958591 1239.45035876 816.01551992 1236.23127914 819.5 1233 C823.58301022 1229.21368312 827.69769717 1225.48232951 831.91015625 1221.83984375 C834.64370559 1219.43329844 837.32114006 1216.96696804 840 1214.5 C843.90979181 1210.89984677 847.85866536 1207.35582336 851.875 1203.875 C854.61823418 1201.45449925 857.30884568 1198.97799358 860 1196.5 C863.90981595 1192.89987244 867.85866468 1189.35582395 871.875 1185.875 C874.61823418 1183.45449925 877.30884568 1180.97799358 880 1178.5 C883.30028923 1175.46111982 886.60949283 1172.43843955 890 1169.5 C893.87817013 1166.13677362 897.65527811 1162.66664329 901.43310547 1159.19189453 C906.25584891 1154.75776372 911.1234112 1150.3748176 916 1146 C917.66692647 1144.50028872 919.33359149 1143.00028679 921 1141.5 C941 1123.5 941 1123.5 943.49609375 1121.25390625 C945.17629851 1119.74145985 946.85597951 1118.22843141 948.53515625 1116.71484375 C949.36917969 1115.96332031 950.20320313 1115.21179687 951.0625 1114.4375 C951.87589844 1113.70402344 952.68929687 1112.97054687 953.52734375 1112.21484375 C956.78888661 1109.29336697 960.08260164 1106.40894251 963.3828125 1103.53125 C963.91648437 1103.0259375 964.45015625 1102.520625 965 1102 C965 1101.67 965 1101.34 965 1101 C891.62428113 1093.03433447 818.22792619 1085.26758331 744.82596933 1077.54794952 C732.33702167 1076.23447587 719.84815333 1074.92024868 707.35928501 1073.60602088 C663.20274619 1068.95945081 619.04603015 1064.31457877 574.88842108 1059.67818999 C552.96633206 1057.37635428 531.04466619 1055.07051839 509.12336189 1052.76122147 C495.73642996 1051.35111897 482.34917577 1049.94415895 468.96146295 1048.54148931 C459.84383028 1047.58592611 450.72660652 1046.62652438 441.6096867 1045.66418397 C436.37843562 1045.1121141 431.1470292 1044.56165895 425.91511726 1044.0158844 C389.98670147 1040.26586147 389.98670147 1040.26586147 373.09602356 1037.88490295 C372.03003077 1037.7355421 370.96403798 1037.58618125 369.86574239 1037.43229431 C345.92849652 1033.90285041 323.26575368 1026.48161472 302 1015 C301.39849121 1014.67918457 300.79698242 1014.35836914 300.17724609 1014.02783203 C284.0438024 1005.3649603 269.75601226 994.25802548 256.25 981.9375 C255.73107178 981.46715332 255.21214355 980.99680664 254.67749023 980.51220703 C241.06818004 967.91683909 229.91547027 952.18559624 221 936 C220.59104492 935.26426758 220.18208984 934.52853516 219.76074219 933.77050781 C212.00548566 919.71082787 205.43344715 905.15880967 198.97119141 890.47216797 C196.76759767 885.4669646 194.54643811 880.4696124 192.32421875 875.47265625 C191.91414078 874.55052338 191.50406281 873.6283905 191.08155823 872.67831421 C190.23481702 870.7743781 189.38804022 868.87045782 188.54122925 866.96655273 C187.2422684 864.04511116 185.94433723 861.12321425 184.64672852 858.20117188 C179.2837187 846.12545651 173.901622 834.05848844 168.5 822 C162.37376419 808.32227557 156.27237186 794.63367661 150.1875 780.9375 C149.77034729 779.99862946 149.35319458 779.05975891 148.92340088 778.09243774 C144.67497817 768.53016006 140.42878353 758.96689536 136.18510437 749.4025116 C134.08242054 744.66387052 131.97890869 739.92559737 129.875 735.1875 C129.46021393 734.25328217 129.04542786 733.31906433 128.61807251 732.35653687 C122.37924113 718.30887629 116.08361528 704.28764626 109.75918579 690.27835083 C103.72801548 676.91224592 97.81439651 663.4973475 91.9418335 650.06091309 C85.84132702 636.11035597 79.60257461 622.22673046 73.30252075 608.36529541 C67.05201665 594.60707793 60.93369725 580.79585437 54.88525391 566.94775391 C49.19153752 553.91823838 43.38357495 540.94482429 37.5 528 C30.84792481 513.36434986 24.31994947 498.68019093 17.88525391 483.94775391 C11.81067102 470.04666248 5.60113286 456.21116229 -0.68164062 442.40301514 C-5.22036758 432.42538979 -9.70991746 422.42960275 -14.09375 412.3828125 C-14.50822388 411.43355896 -14.92269775 410.48430542 -15.34973145 409.50628662 C-17.34225741 404.93868163 -19.32735845 400.36801594 -21.30273438 395.79296875 C-22.01420888 394.15620042 -22.72579147 392.51947908 -23.4375 390.8828125 C-23.75537476 390.14008087 -24.07324951 389.39734924 -24.40075684 388.6321106 C-25.94321941 385.0966524 -27.49767204 381.95286178 -30 379 Z " fill="#000000" transform="translate(1696,349)"/>
</svg>
